<svg xmlns="http://www.w3.org/2000/svg" width="2011.287" height="512.001" viewBox="0 0 532.153 135.467"><path d="M303.46 0v35.26h35.268V24.247L314.48 0zm43.93 8.588v124.23h35.3V8.588zm43.922 0v124.23h35.3V8.588zM312.295 11l15.418 15.452h-15.418zM147.158 41.49c-21.358 0-37.46 6.167-43.614 19.36-1.61 3.553-2.547 7.548-2.68 12.3h35.992c0-2.28 0-3.687.872-4.894 1.274-3.017 4.223-4.56 9.807-4.56 5.095 0 8.32 1.61 9.767 4.56.94 1.944 1.073 3.352 1.073 9.144v.872H147.15c-22.806 0-40.912 3.352-47.428 17.08-1.475 3.553-2.346 7.582-2.346 12.334 0 5.095.94 9.298 2.75 12.818 4.56 10.03 14.855 14.962 28.792 14.962 14.473 0 23.503-5.095 29.476-13.025v10.397h35.3V82.327c0-8.795-1.274-16.19-3.955-21.994-5.966-13.025-19.374-18.8-42.54-18.8zm117.367 0c-12.85 0-21.344 5.296-27.68 13.9V44.117h-35.3v88.69h35.3v-49.44c0-9.854 3.955-14.446 11.92-14.446 7.414 0 11.396 3.687 11.396 13.2v50.686h35.3v-58.06c0-21.29-11.208-33.256-30.937-33.256zm216.547 0c-21.9 0-38.003 9.137-45.243 24.97-2.883 5.966-4.357 12.328-4.357 21.653 0 8.62 1.475 16.008 4.156 22.343 7.602 16.19 24.817 24.978 47.803 24.978 14.66 0 28.4-3.486 37.62-11.778 5.765-5.095 9.593-11.96 10.498-20.4h-35.992c-.67 2.078-1.274 3.687-2.883 4.894-2.145 1.944-5.63 2.816-9.774 2.816-7.233 0-11.932-1.944-13.923-6.704-.872-1.944-1.475-4.558-1.61-7.904h64.784c0-13.193-.67-20.433-4.693-29.41-7.42-16.015-23.7-25.494-46.315-25.494zM0 44.103l33.3 88.69h39.632l33.498-88.69h-37.83l-15.385 49.78-15.552-49.78zm303.46 0v88.69h35.268v-88.69zm178.336 20.58c6.3 0 10.853 2.28 13.025 6.858.87 1.944 1.475 3.553 1.475 7.065h-28.96c0-3.352.737-5.162 1.61-7.24 2.145-4.558 6.703-6.704 12.85-6.704zm-332.1 31.145h8.695v1.274c0 4.893-.67 6.503-1.274 8.795-1.8 3.888-5.832 5.765-12.335 5.765-4.156 0-7.937-1.005-9.385-4.156-.67-1.207-.738-2.28-.738-3.687s0-2.48.738-3.352c1.61-3.687 6.85-4.558 14.272-4.558z" fill="#2850c8" paint-order="normal"/></svg>