
<svg xmlns="http://www.w3.org/2000/svg" viewBox="0 0 408.39 107.1"><title>wordmark_2</title><path d="M75,36,47.59,105H27.43L0,36H19.17L37.79,83.73,56.26,36Z"/><path d="M99.9,65.94l17.5-2.66c3.92-.56,5-2.52,5-4.9,0-5.74-3.92-10.36-12.88-10.36-8.54,0-13.3,5.46-14,12.32L80.72,57c1.26-11.76,11.9-22.26,28.7-22.26,21,0,29,11.9,29,25.48V94.08a61.84,61.84,0,0,0,.84,10.92H124.12a37.91,37.91,0,0,1-.7-8.68c-3.22,5.18-9.94,10.78-21,10.78-14.28,0-23.1-9.8-23.1-20.58C79.32,74.34,88.28,67.62,99.9,65.94Zm22.5,10.68V73.54L104.62,76.2c-5,.84-9.1,3.64-9.1,9.24,0,4.62,3.5,8.82,9.94,8.82C114.56,94.26,122.4,89.92,122.4,76.62Z"/><path d="M220.4,105h-19V66.08c0-9-5.74-14.7-14-14.7-8,0-14,5.88-14,14.7V105h-18V36h17V48.46c3.81-8.82,11.72-14.14,21.74-14.14,15.11,0,26.26,11.62,26.26,27.57Z"/><path d="M246.86,3.54a10.64,10.64,0,1,1-10.92,10.64A10.7,10.7,0,0,1,246.86,3.54ZM238.4,36h18v69h-18Z"/><path d="M274.4,0h18V105h-18Z"/><path d="M312.4,0h18V105h-18Z"/><path d="M407.55,84.22c-3.64,11.9-14.42,21.56-30.8,21.56-18.48,0-34.86-13.44-34.86-36.54,0-21.56,16-35.84,33.18-35.84,21,0,33.32,13.86,33.32,35.42A24.06,24.06,0,0,1,408,74H358.13a18.25,18.25,0,0,0,18.62,17.78c9.8,0,14.84-5.18,17.08-11.9ZM392,62c-.28-8-5.6-15.12-16.8-15.12A16.37,16.37,0,0,0,358.55,62Z"/></svg>